<svg width="463" height="143" viewBox="0 0 463 143" fill="none" xmlns="http://www.w3.org/2000/svg">
<path d="M36.3751 118.685L25.1449 134.228L39.1827 138.669L47.2853 142H56.028L54.3435 134.783L56.028 127.012L54.3435 117.02L59.3971 110.456L68.3812 107.583L80.7345 110.456L91.4032 111.468V104.807L107.687 93.7047L138.009 97.5905L149.8 107.028L181.245 111.468L208.197 107.028L223.92 113.689H260.979V104.807L278.386 100.921L298.039 122.016L307.585 119.795L305.9 134.783H298.039V142L305.9 138.669L322.745 119.795L320.499 100.921L312.638 104.807L307.585 97.0354L326.114 78.1614L380.581 63.7283H390.127L394.057 68.7244L387.881 74.2756H394.057H399.111H409.218L433.363 63.7283L429.432 59.2874L424.379 56.5118L433.363 50.4055L441.224 49.8504L448.524 53.1811L458.781 56.5118V53.1811L462 49.8504L460.315 47.6299L456.385 44.8543L454.139 50.4055L435.609 38.1929L418.202 39.9846L387.881 35.9724L368.228 30.4213L358.121 25.9803H349.136L342.398 23.7598H335.099L326.114 19.874L322.745 25.9803H300.285L291.862 33.752L286.809 17.0984L278.386 14.878L266.594 19.874L255.364 14.878H248.065H240.765L217.743 19.874L237.396 1H217.743L181.245 5.44094L145.308 33.752V44.8543L136.324 39.9846L129.586 47.6299H120.602L115.548 39.9846H98.1413H80.7345L71.1888 38.1929L59.3971 44.8543L56.028 47.6299L50.4129 44.8543L45.3593 51.5157L43.1133 47.6299H40.3057L36.3751 51.5157V54.8465H32.4446H25.1449L32.4446 60.9528H27.9525H25.1449L21.2144 54.8465V51.5157L13.9147 44.8543L18.4068 47.6299H27.9525H36.3751L39.1827 42.6339L32.4446 38.1929L13.9147 30.4213L4.36906 38.1929V47.6299H6.6151L7.17661 54.8465V58.7323L9.98417 63.7283L1 72.0551L6.6151 78.1614H1V92.0394H7.17661L13.9147 102.031H9.98417L12.2302 107.583H18.4068L21.2144 113.134L36.3751 118.685Z" fill="#7F0000" stroke="black"/>
</svg>
