<svg width="497" height="143" viewBox="0 0 497 143" fill="none" xmlns="http://www.w3.org/2000/svg">
<path d="M2 141L7.47778 135.908C12.9556 130.816 23.9111 120.632 34.8667 116.943C45.8222 113.255 56.7778 116.062 67.7333 108.295C78.6889 100.528 89.6444 82.1861 100.6 86.1957C111.556 90.2053 122.511 116.566 133.467 118.181C144.422 119.796 155.378 96.6646 166.333 93.5621C177.289 90.4595 188.244 107.385 199.2 110.959C210.156 114.533 221.111 104.755 232.067 87.2974C243.022 69.8398 253.978 44.7031 264.933 36.7929C275.889 28.8827 286.844 38.1991 297.8 41.4301C308.756 44.6611 319.711 41.8068 330.667 46.3843C341.622 50.9618 352.578 62.9711 363.533 63.4862C374.489 64.0013 385.444 53.022 396.4 52.1269C407.356 51.2319 418.311 60.421 429.267 49.604C440.222 38.787 451.178 7.96382 462.133 3.57118C473.089 -0.821471 484.044 21.2164 489.522 32.2354L495 43.2543" stroke="#5200FF" stroke-width="4"/>
</svg>
