<svg width="493" height="280" viewBox="0 0 493 280" fill="none" xmlns="http://www.w3.org/2000/svg">
<path d="M5.47778 133.029L0 138.126V280H493V40.2911L487.522 29.2621C482.044 18.2331 471.089 -3.82497 460.133 0.571699C449.178 4.96836 438.222 35.8197 427.267 46.6466C416.311 57.4736 405.356 48.276 394.4 49.1719C383.444 50.0677 372.489 61.057 361.533 60.5415C350.578 60.026 339.622 48.0056 328.667 43.4239C317.711 38.8423 306.756 41.6992 295.8 38.4653C284.844 35.2313 273.889 25.9064 262.933 33.8238C251.978 41.7412 241.022 66.901 230.067 84.3744C219.111 101.848 208.156 111.635 197.2 108.058C186.244 104.481 175.289 87.5395 164.333 90.6449C153.378 93.7503 142.422 116.902 131.467 115.286C120.511 113.67 109.556 87.2851 98.6 83.2718C87.6444 79.2585 76.6889 97.6167 65.7333 105.391C54.7778 113.165 43.8222 110.355 32.8667 114.047C21.9111 117.739 10.9556 127.933 5.47778 133.029Z" fill="url(#paint0_linear_3_241)"/>
<defs>
<linearGradient id="paint0_linear_3_241" x1="246.5" y1="0" x2="246.5" y2="280" gradientUnits="userSpaceOnUse">
<stop stop-color="#5200FF" stop-opacity="0.5"/>
<stop offset="1" stop-color="#5200FF" stop-opacity="0"/>
</linearGradient>
</defs>
</svg>
